<svg width="25" height="25" viewBox="0 0 25 25" fill="none" xmlns="http://www.w3.org/2000/svg">
<g clip-path="url(#clip0_11_152)">
<path d="M4.58332 20.8333H14.5833H24.5833C24.8333 20.8333 25 20.6667 25 20.4167V12.9167V5.4167V0.41665C25 0.16665 24.8333 0 24.5833 0H16.6666H12.0833H4.58328C4.33328 0 4.16663 0.16665 4.16663 0.41665V10.4166V13.75V18.75V20.4167C4.16663 20.6667 4.33333 20.8333 4.58332 20.8333ZM4.99998 14.1666H9.16663C8.95828 16.375 7.20828 18.125 4.99998 18.3333V14.1666ZM4.99998 0.83335H11.6666V3.33335H11.25C11 3.33335 10.8333 3.5 10.8333 3.75C10.8333 4 11 4.16665 11.25 4.16665H12.9166C13.1666 4.16665 13.3333 4 13.3333 3.75C13.3333 3.5 13.1666 3.33335 12.9166 3.33335H12.5V0.83335H16.25V5.4167C16.25 5.6667 16.4166 5.83335 16.6666 5.83335H18.3333V6.25C18.3333 6.5 18.4999 6.66665 18.7499 6.66665C18.9999 6.66665 19.1666 6.5 19.1666 6.25V4.58335C19.1666 4.33335 18.9999 4.1667 18.7499 4.1667C18.4999 4.1667 18.3333 4.33335 18.3333 4.58335V5H17.0833V0.83335H24.1666V5H22.5V4.58335C22.5 4.33335 22.3333 4.1667 22.0833 4.1667C21.8333 4.1667 21.6667 4.33335 21.6667 4.58335V6.25C21.6667 6.5 21.8333 6.66665 22.0833 6.66665C22.3333 6.66665 22.5 6.5 22.5 6.25V5.83335H24.1666V12.5H21.6666V12.0833C21.6666 11.8333 21.5 11.6667 21.25 11.6667C21 11.6667 20.8333 11.8333 20.8333 12.0833V13.75C20.8333 14 21 14.1666 21.25 14.1666C21.5 14.1666 21.6666 14 21.6666 13.75V13.3333H24.1666V20H15V13.3333H17.5V13.75C17.5 14 17.6666 14.1666 17.9166 14.1666C18.1666 14.1666 18.3333 14 18.3333 13.75V12.0833C18.3333 11.8333 18.1666 11.6667 17.9166 11.6667C17.6666 11.6667 17.5 11.8333 17.5 12.0833V12.5H14.5833C14.3333 12.5 14.1667 12.6666 14.1667 12.9166V20H4.99998V19.151C7.80393 18.9395 9.99997 16.6098 9.99997 13.75C9.99997 13.5 9.83332 13.3333 9.58332 13.3333H4.99998V10.8334H12.0833C12.3333 10.8334 12.5 10.6667 12.5 10.4167V7.5H12.9166C13.1666 7.5 13.3333 7.33335 13.3333 7.08335C13.3333 6.83335 13.1666 6.6667 12.9166 6.6667H11.25C11 6.6667 10.8333 6.83335 10.8333 7.08335C10.8333 7.33335 11 7.5 11.25 7.5H11.6666V10H4.99998V0.83335Z" fill="#CFBE7E"/>
<path d="M3.20834 20.7084C3.37499 20.5417 3.37499 20.2917 3.20834 20.125C3.04169 19.9584 2.79169 19.9584 2.62499 20.125L2.08334 20.6667V1.41665L2.62499 1.95835C2.70834 2.0417 2.79164 2.08335 2.91664 2.08335C3.04164 2.08335 3.12499 2.0417 3.20829 1.95835C3.37494 1.7917 3.37494 1.5417 3.20829 1.375L2.02963 0.196289C1.96151 0.0737793 1.8326 0 1.66664 0C1.50067 0 1.37181 0.0737793 1.30365 0.196289L0.124988 1.375C-0.0416626 1.54165 -0.0416626 1.79165 0.124988 1.95835C0.291638 2.12505 0.541638 2.125 0.708337 1.95835L1.24999 1.41665V20.6667L0.708337 20.125C0.541687 19.9584 0.291687 19.9584 0.124988 20.125C-0.0416626 20.2917 -0.0416626 20.5417 0.124988 20.7084L1.3037 21.8871C1.37181 22.0096 1.50067 22.0834 1.66669 22.0834C1.83265 22.0834 1.96151 22.0096 2.02963 21.8871L3.20834 20.7084Z" fill="#CFBE7E"/>
<path d="M25 23.3337C25 23.3335 25 23.3332 25 23.3329C24.9999 23.1672 24.9261 23.0384 24.8037 22.9703L23.625 21.7916C23.4583 21.625 23.2083 21.625 23.0416 21.7916C22.875 21.9583 22.875 22.2083 23.0416 22.375L23.5833 22.9166H4.33333L4.87498 22.375C5.04163 22.2084 5.04163 21.9584 4.87498 21.7917C4.70832 21.625 4.45833 21.625 4.29163 21.7917L3.11291 22.9704C2.99041 23.0385 2.91663 23.1674 2.91663 23.3334C2.91663 23.4994 2.99041 23.6282 3.11291 23.6964L4.29163 24.8751C4.37498 24.9584 4.45828 25.0001 4.58328 25.0001C4.70828 25.0001 4.79163 24.9584 4.87493 24.8751C5.04158 24.7084 5.04158 24.4584 4.87493 24.2917L4.33333 23.75H23.5833L23.0417 24.2917C22.875 24.4583 22.875 24.7083 23.0417 24.875C23.125 24.9584 23.2083 25 23.3333 25C23.4583 25 23.5417 24.9584 23.625 24.875L24.8037 23.6963C24.9261 23.6282 24.9998 23.4995 25 23.3337Z" fill="#CFBE7E"/>
</g>
<defs>
<clipPath id="clip0_11_152">
<rect width="25" height="25" fill="white"/>
</clipPath>
</defs>
</svg>
