<svg width="25" height="25" viewBox="0 0 25 25" fill="none" xmlns="http://www.w3.org/2000/svg">
<path d="M12.5 0.78125C6.03716 0.78125 0.78125 6.03717 0.78125 12.5C0.78125 18.9628 6.03716 24.2188 12.5 24.2188C18.9628 24.2188 24.2187 18.9628 24.2187 12.5C24.2187 6.03717 18.9628 0.78125 12.5 0.78125ZM12.5 2.34375C18.1184 2.34375 22.6623 6.88161 22.6623 12.5C22.6623 18.1184 18.1184 22.6624 12.5 22.6624C6.8816 22.6624 2.34375 18.1184 2.34375 12.5C2.34375 6.88161 6.8816 2.34375 12.5 2.34375ZM12.4893 6.25458C12.2829 6.25821 12.0863 6.34338 11.9425 6.49148C11.7987 6.63958 11.7194 6.83857 11.7218 7.04498V7.70264C10.4604 7.93928 9.3811 8.75157 9.3811 10.1593C9.3811 11.1359 9.82134 11.9257 10.4126 12.3856C11.0038 12.8454 11.6714 13.0493 12.2574 13.2446C12.8433 13.4399 13.3491 13.6267 13.6368 13.8504C13.9244 14.0741 14.0625 14.2624 14.0625 14.8483C14.0625 16.1504 10.9436 16.1504 10.9436 14.8483C10.9459 14.7443 10.9274 14.6408 10.8892 14.544C10.851 14.4472 10.7938 14.359 10.721 14.2846C10.6482 14.2102 10.5613 14.1511 10.4654 14.1107C10.3695 14.0703 10.2664 14.0496 10.1623 14.0496C10.0583 14.0496 9.95524 14.0703 9.85931 14.1107C9.76337 14.1511 9.67647 14.2102 9.60369 14.2846C9.53092 14.359 9.47374 14.4472 9.43552 14.544C9.39729 14.6408 9.37879 14.7443 9.3811 14.8483C9.3811 16.255 10.4613 17.0688 11.7218 17.3065V17.9611C11.7195 18.0652 11.738 18.1686 11.7762 18.2654C11.8144 18.3623 11.8716 18.4504 11.9444 18.5249C12.0172 18.5993 12.1041 18.6584 12.2 18.6987C12.2959 18.7391 12.399 18.7599 12.503 18.7599C12.6071 18.7599 12.7102 18.7391 12.8061 18.6987C12.902 18.6584 12.9889 18.5993 13.0617 18.5249C13.1345 18.4504 13.1917 18.3623 13.2299 18.2654C13.2681 18.1686 13.2866 18.0652 13.2843 17.9611V17.3065C14.545 17.0689 15.6265 16.2552 15.6265 14.8483C15.6265 13.8718 15.1847 13.0819 14.5935 12.6221C14.0022 12.1622 13.3346 11.9568 12.7487 11.7615C12.1628 11.5662 11.657 11.381 11.3693 11.1572C11.0817 10.9335 10.9436 10.7452 10.9436 10.1593C10.9436 8.85722 14.0625 8.85722 14.0625 10.1593C14.0625 10.3667 14.1449 10.5656 14.2915 10.7123C14.4382 10.8589 14.6371 10.9413 14.8445 10.9413C15.0519 10.9413 15.2508 10.8589 15.3975 10.7123C15.5441 10.5656 15.6265 10.3667 15.6265 10.1593C15.6265 8.75369 14.5446 7.9422 13.2843 7.70416V7.04498C13.2855 6.94046 13.2658 6.83675 13.2262 6.73999C13.1866 6.64324 13.128 6.55541 13.0539 6.48171C12.9798 6.40801 12.8916 6.34993 12.7946 6.31092C12.6977 6.2719 12.5938 6.25274 12.4893 6.25458H12.4893Z" fill="#CFBE7E"/>
</svg>
