<svg width="25" height="25" viewBox="0 0 25 25" fill="none" xmlns="http://www.w3.org/2000/svg">
<path d="M1.47059 1.47059V5.88235C1.47059 6.28844 1.14139 6.61765 0.735294 6.61765C0.329203 6.61765 0 6.28844 0 5.88235V0.735294C0 0.329202 0.329203 0 0.735294 0H5.88235C6.28844 0 6.61765 0.329202 6.61765 0.735294C6.61765 1.14139 6.28844 1.47059 5.88235 1.47059H1.47059ZM23.5294 1.47059H19.1176C18.7116 1.47059 18.3824 1.14139 18.3824 0.735294C18.3824 0.329202 18.7116 0 19.1176 0H24.2647C24.6708 0 25 0.329202 25 0.735294V5.88235C25 6.28844 24.6708 6.61765 24.2647 6.61765C23.8586 6.61765 23.5294 6.28844 23.5294 5.88235V1.47059ZM1.47059 23.5294H5.88235C6.28844 23.5294 6.61765 23.8586 6.61765 24.2647C6.61765 24.6708 6.28844 25 5.88235 25H0.735294C0.329203 25 0 24.6708 0 24.2647V19.1176C0 18.7116 0.329203 18.3824 0.735294 18.3824C1.14139 18.3824 1.47059 18.7116 1.47059 19.1176V23.5294ZM23.5294 23.5294V19.1176C23.5294 18.7116 23.8586 18.3824 24.2647 18.3824C24.6708 18.3824 25 18.7116 25 19.1176V24.2647C25 24.6708 24.6708 25 24.2647 25H19.1176C18.7116 25 18.3824 24.6708 18.3824 24.2647C18.3824 23.8586 18.7116 23.5294 19.1176 23.5294H23.5294ZM18.0147 17.2794C18.0147 17.6855 17.6855 18.0147 17.2794 18.0147H7.72059C7.3145 18.0147 6.98529 17.6855 6.98529 17.2794V7.72059C6.98529 7.3145 7.3145 6.98529 7.72059 6.98529H17.2794C17.6855 6.98529 18.0147 7.3145 18.0147 7.72059V17.2794ZM16.5441 16.5441V8.45588H8.45588V16.5441H16.5441Z" fill="#CFBE7E"/>
</svg>
