<svg width="60" height="53" viewBox="0 0 60 53" fill="none" xmlns="http://www.w3.org/2000/svg">
<g clip-path="url(#clip0_2_18)">
<path d="M5.9 0L0 5.26V11.91L13.34 0H5.9Z" fill="#CFBE7E"/>
<path d="M19.35 0L0 17.27V23.92L26.79 0H19.35Z" fill="#CFBE7E"/>
<path d="M50.21 18.34V6.20999H43.21V12.08L31.21 1.39999L0.0400085 29.29V43.03L29.66 16.58L59.29 43.03V26.41L50.21 18.34Z" fill="#CFBE7E"/>
<path d="M40.45 31.63H32.51V39.57H40.45V31.63Z" fill="#CFBE7E"/>
<path d="M27.27 31.63H19.33V39.57H27.27V31.63Z" fill="#CFBE7E"/>
<path d="M40.45 44.12H32.51V52.05H40.45V44.12Z" fill="#CFBE7E"/>
<path d="M27.27 44.12H19.33V52.05H27.27V44.12Z" fill="#CFBE7E"/>
</g>
<defs>
<clipPath id="clip0_2_18">
<rect width="59.26" height="52.05" fill="white"/>
</clipPath>
</defs>
</svg>
